<svg id="Layer_1" data-name="Layer 1" xmlns="http://www.w3.org/2000/svg" xmlns:xlink="http://www.w3.org/1999/xlink" viewBox="0 0 641.26 793.55"><defs><style>.cls-1,.cls-3,.cls-39,.cls-40{fill:none;}.cls-2{clip-path:url(#clip-path);}.cls-3{stroke:#fff;stroke-linecap:round;stroke-linejoin:round;stroke-width:1.55px;}.cls-4{clip-path:url(#clip-path-2);}.cls-5{fill:#fff;}.cls-6{fill:#8da0cb;}.cls-7{fill:#e78ac3;}.cls-8{fill:#a6d854;}.cls-9{fill:#fc8d62;}.cls-10{fill:#66c2a5;}.cls-11{font-size:11px;}.cls-11,.cls-12,.cls-37,.cls-41{font-family:Helvetica, Helvetica;}.cls-12{font-size:7px;}.cls-12,.cls-19,.cls-37{fill:#4d4d4d;}.cls-13{letter-spacing:-0.02em;}.cls-14{letter-spacing:-0.01em;}.cls-15{letter-spacing:0em;}.cls-16{letter-spacing:-0.03em;}.cls-17{letter-spacing:-0.01em;}.cls-18{letter-spacing:-0.02em;}.cls-19,.cls-37{font-size:8px;}.cls-19{font-family:Helvetica-Oblique, Helvetica;}.cls-20{letter-spacing:-0.12em;}.cls-21{letter-spacing:-0.03em;}.cls-22{letter-spacing:-0.01em;}.cls-23{letter-spacing:0.01em;}.cls-24{letter-spacing:-0.05em;}.cls-25{letter-spacing:-0.02em;}.cls-26{letter-spacing:-0.03em;}.cls-27{letter-spacing:-0.04em;}.cls-28{letter-spacing:0.02em;}.cls-29{letter-spacing:-0.02em;}.cls-30{letter-spacing:0.03em;}.cls-31{letter-spacing:0.01em;}.cls-32{letter-spacing:-0.03em;}.cls-33{letter-spacing:-0.01em;}.cls-34{letter-spacing:-0.03em;}.cls-35{letter-spacing:-0.02em;}.cls-36{letter-spacing:-0.03em;}.cls-38{letter-spacing:-0.02em;}.cls-39{stroke:#e4f2f2;}.cls-39,.cls-40{stroke-miterlimit:10;}.cls-40{stroke:#21130a;}.cls-41{font-size:13px;}.cls-42{letter-spacing:-0.02em;}</style><clipPath id="clip-path" transform="translate(-32.33 0.77)"><rect class="cls-1" x="123.17" width="549.65" height="792"/></clipPath><clipPath id="clip-path-2" transform="translate(-32.33 0.77)"><rect class="cls-1" x="131.93" y="51.58" width="440.93" height="732.45"/></clipPath></defs><title>parasit_vis3</title><g class="cls-2"><rect class="cls-3" x="90.84" y="0.77" width="549.65" height="792"/></g><g class="cls-4"><rect class="cls-5" x="99.6" y="52.36" width="440.93" height="732.45"/><rect class="cls-6" x="375.63" y="364.83" width="16.4" height="16.4"/><rect class="cls-6" x="375.63" y="346.61" width="16.4" height="16.4"/><rect class="cls-7" x="375.63" y="73.3" width="16.4" height="16.4"/><rect class="cls-7" x="375.63" y="55.08" width="16.4" height="16.4"/><rect class="cls-7" x="375.63" y="747.46" width="16.4" height="16.4"/><rect class="cls-7" x="375.63" y="765.68" width="16.4" height="16.4"/><rect class="cls-7" x="375.63" y="729.23" width="16.4" height="16.4"/><rect class="cls-7" x="466.73" y="255.5" width="16.4" height="16.4"/><rect class="cls-7" x="466.73" y="237.28" width="16.4" height="16.4"/><rect class="cls-7" x="466.73" y="565.25" width="16.4" height="16.4"/><rect class="cls-7" x="484.95" y="674.57" width="16.4" height="16.4"/><rect class="cls-7" x="484.95" y="601.69" width="16.4" height="16.4"/><rect class="cls-6" x="430.29" y="528.8" width="16.4" height="16.4"/><rect class="cls-7" x="430.29" y="146.18" width="16.4" height="16.4"/><rect class="cls-7" x="430.29" y="55.08" width="16.4" height="16.4"/><rect class="cls-7" x="430.29" y="127.97" width="16.4" height="16.4"/><rect class="cls-7" x="430.29" y="109.74" width="16.4" height="16.4"/><rect class="cls-7" x="430.29" y="765.68" width="16.4" height="16.4"/><rect class="cls-7" x="430.29" y="711.01" width="16.4" height="16.4"/><rect class="cls-7" x="430.29" y="692.79" width="16.4" height="16.4"/><rect class="cls-7" x="430.29" y="674.57" width="16.4" height="16.4"/><rect class="cls-7" x="412.07" y="419.48" width="16.4" height="16.4"/><rect class="cls-7" x="412.07" y="437.7" width="16.4" height="16.4"/><rect class="cls-6" x="412.07" y="401.27" width="16.4" height="16.4"/><rect class="cls-6" x="339.19" y="528.8" width="16.4" height="16.4"/><rect class="cls-6" x="339.19" y="474.14" width="16.4" height="16.4"/><rect class="cls-7" x="339.19" y="164.41" width="16.4" height="16.4"/><rect class="cls-6" x="339.19" y="455.92" width="16.4" height="16.4"/><rect class="cls-6" x="339.19" y="492.36" width="16.4" height="16.4"/><rect class="cls-6" x="339.19" y="747.46" width="16.4" height="16.4"/><rect class="cls-6" x="339.19" y="419.48" width="16.4" height="16.4"/><rect class="cls-8" x="339.19" y="255.5" width="16.4" height="16.4"/><rect class="cls-8" x="339.19" y="237.28" width="16.4" height="16.4"/><rect class="cls-6" x="339.19" y="437.7" width="16.4" height="16.4"/><rect class="cls-6" x="339.19" y="765.68" width="16.4" height="16.4"/><rect class="cls-6" x="339.19" y="401.27" width="16.4" height="16.4"/><rect class="cls-6" x="339.19" y="638.14" width="16.4" height="16.4"/><rect class="cls-6" x="339.19" y="547.02" width="16.4" height="16.4"/><rect class="cls-6" x="339.19" y="273.73" width="16.4" height="16.4"/><rect class="cls-6" x="339.19" y="583.47" width="16.4" height="16.4"/><rect class="cls-6" x="339.19" y="510.58" width="16.4" height="16.4"/><rect class="cls-6" x="339.19" y="729.23" width="16.4" height="16.4"/><rect class="cls-6" x="339.19" y="619.91" width="16.4" height="16.4"/><rect class="cls-6" x="339.19" y="711.01" width="16.4" height="16.4"/><rect class="cls-6" x="339.19" y="692.79" width="16.4" height="16.4"/><rect class="cls-6" x="339.19" y="674.57" width="16.4" height="16.4"/><rect class="cls-6" x="339.19" y="656.36" width="16.4" height="16.4"/><rect class="cls-6" x="339.19" y="565.25" width="16.4" height="16.4"/><rect class="cls-6" x="339.19" y="601.69" width="16.4" height="16.4"/><rect class="cls-7" x="339.19" y="310.17" width="16.4" height="16.4"/><rect class="cls-7" x="339.19" y="291.95" width="16.4" height="16.4"/><rect class="cls-9" x="320.97" y="383.05" width="16.4" height="16.4"/><rect class="cls-7" x="320.97" y="328.39" width="16.4" height="16.4"/><rect class="cls-9" x="302.75" y="346.61" width="16.4" height="16.4"/><rect class="cls-7" x="302.75" y="747.46" width="16.4" height="16.4"/><rect class="cls-7" x="302.75" y="765.68" width="16.4" height="16.4"/><rect class="cls-7" x="302.75" y="182.62" width="16.4" height="16.4"/><rect class="cls-6" x="302.75" y="219.06" width="16.4" height="16.4"/><rect class="cls-6" x="393.85" y="200.84" width="16.4" height="16.4"/><rect class="cls-6" x="393.85" y="182.62" width="16.4" height="16.4"/><rect class="cls-6" x="357.41" y="73.3" width="16.4" height="16.4"/><rect class="cls-6" x="357.41" y="164.41" width="16.4" height="16.4"/><rect class="cls-6" x="357.41" y="146.18" width="16.4" height="16.4"/><rect class="cls-6" x="357.41" y="55.08" width="16.4" height="16.4"/><rect class="cls-6" x="357.41" y="127.97" width="16.4" height="16.4"/><rect class="cls-6" x="357.41" y="109.74" width="16.4" height="16.4"/><rect class="cls-6" x="357.41" y="91.52" width="16.4" height="16.4"/><rect class="cls-6" x="357.41" y="255.5" width="16.4" height="16.4"/><rect class="cls-6" x="357.41" y="237.28" width="16.4" height="16.4"/><rect class="cls-7" x="357.41" y="638.14" width="16.4" height="16.4"/><rect class="cls-6" x="357.41" y="310.17" width="16.4" height="16.4"/><rect class="cls-6" x="357.41" y="291.95" width="16.4" height="16.4"/><rect class="cls-6" x="357.41" y="328.39" width="16.4" height="16.4"/><rect class="cls-7" x="448.51" y="164.41" width="16.4" height="16.4"/><rect class="cls-7" x="448.51" y="747.46" width="16.4" height="16.4"/><rect class="cls-7" x="448.51" y="765.68" width="16.4" height="16.4"/><rect class="cls-8" x="448.51" y="638.14" width="16.4" height="16.4"/><rect class="cls-7" x="448.51" y="729.23" width="16.4" height="16.4"/><rect class="cls-9" x="266.31" y="346.61" width="16.4" height="16.4"/><rect class="cls-9" x="266.31" y="73.3" width="16.4" height="16.4"/><rect class="cls-9" x="266.31" y="164.41" width="16.4" height="16.4"/><rect class="cls-9" x="266.31" y="146.18" width="16.4" height="16.4"/><rect class="cls-9" x="266.31" y="55.08" width="16.4" height="16.4"/><rect class="cls-9" x="266.31" y="127.97" width="16.4" height="16.4"/><rect class="cls-9" x="266.31" y="109.74" width="16.4" height="16.4"/><rect class="cls-9" x="266.31" y="91.52" width="16.4" height="16.4"/><rect class="cls-9" x="266.31" y="255.5" width="16.4" height="16.4"/><rect class="cls-9" x="266.31" y="237.28" width="16.4" height="16.4"/><rect class="cls-9" x="266.31" y="200.84" width="16.4" height="16.4"/><rect class="cls-9" x="266.31" y="182.62" width="16.4" height="16.4"/><rect class="cls-7" x="266.31" y="547.02" width="16.4" height="16.4"/><rect class="cls-9" x="266.31" y="219.06" width="16.4" height="16.4"/><rect class="cls-9" x="266.31" y="273.73" width="16.4" height="16.4"/><rect class="cls-9" x="266.31" y="310.17" width="16.4" height="16.4"/><rect class="cls-9" x="266.31" y="291.95" width="16.4" height="16.4"/><rect class="cls-9" x="266.31" y="328.39" width="16.4" height="16.4"/><rect class="cls-7" x="503.17" y="146.18" width="16.4" height="16.4"/><rect class="cls-9" x="284.53" y="364.83" width="16.4" height="16.4"/><rect class="cls-9" x="284.53" y="346.61" width="16.4" height="16.4"/><rect class="cls-9" x="248.09" y="528.8" width="16.4" height="16.4"/><rect class="cls-9" x="248.09" y="474.14" width="16.4" height="16.4"/><rect class="cls-9" x="248.09" y="455.92" width="16.4" height="16.4"/><rect class="cls-9" x="248.09" y="492.36" width="16.4" height="16.4"/><rect class="cls-9" x="248.09" y="747.46" width="16.4" height="16.4"/><rect class="cls-9" x="248.09" y="419.48" width="16.4" height="16.4"/><rect class="cls-9" x="248.09" y="437.7" width="16.4" height="16.4"/><rect class="cls-9" x="248.09" y="765.68" width="16.4" height="16.4"/><rect class="cls-9" x="248.09" y="401.27" width="16.4" height="16.4"/><rect class="cls-9" x="248.09" y="638.14" width="16.4" height="16.4"/><rect class="cls-9" x="248.09" y="547.02" width="16.4" height="16.4"/><rect class="cls-9" x="248.09" y="583.47" width="16.4" height="16.4"/><rect class="cls-9" x="248.09" y="510.58" width="16.4" height="16.4"/><rect class="cls-9" x="248.09" y="729.23" width="16.4" height="16.4"/><rect class="cls-9" x="248.09" y="619.91" width="16.4" height="16.4"/><rect class="cls-9" x="248.09" y="711.01" width="16.4" height="16.4"/><rect class="cls-9" x="248.09" y="692.79" width="16.4" height="16.4"/><rect class="cls-9" x="248.09" y="674.57" width="16.4" height="16.4"/><rect class="cls-9" x="248.09" y="656.36" width="16.4" height="16.4"/><rect class="cls-9" x="248.09" y="565.25" width="16.4" height="16.4"/><rect class="cls-9" x="248.09" y="601.69" width="16.4" height="16.4"/><rect class="cls-10" x="138.77" y="419.48" width="16.4" height="16.4"/><rect class="cls-10" x="138.77" y="765.68" width="16.4" height="16.4"/><rect class="cls-10" x="138.77" y="401.27" width="16.4" height="16.4"/><rect class="cls-10" x="138.77" y="729.23" width="16.4" height="16.4"/><rect class="cls-10" x="138.77" y="711.01" width="16.4" height="16.4"/><rect class="cls-10" x="138.77" y="692.79" width="16.4" height="16.4"/><rect class="cls-10" x="229.87" y="383.05" width="16.4" height="16.4"/><rect class="cls-10" x="193.43" y="583.47" width="16.4" height="16.4"/><rect class="cls-10" x="193.43" y="565.25" width="16.4" height="16.4"/><rect class="cls-10" x="193.43" y="601.69" width="16.4" height="16.4"/><rect class="cls-10" x="211.65" y="674.57" width="16.4" height="16.4"/><rect class="cls-10" x="211.65" y="656.36" width="16.4" height="16.4"/><rect class="cls-10" x="156.99" y="747.46" width="16.4" height="16.4"/><rect class="cls-10" x="156.99" y="638.14" width="16.4" height="16.4"/><rect class="cls-10" x="156.99" y="729.23" width="16.4" height="16.4"/><rect class="cls-10" x="156.99" y="619.91" width="16.4" height="16.4"/><rect class="cls-10" x="102.33" y="364.83" width="16.4" height="16.4"/><rect class="cls-10" x="102.33" y="346.61" width="16.4" height="16.4"/><rect class="cls-10" x="102.33" y="528.8" width="16.4" height="16.4"/><rect class="cls-10" x="102.33" y="474.14" width="16.4" height="16.4"/><rect class="cls-10" x="102.33" y="455.92" width="16.4" height="16.4"/><rect class="cls-10" x="102.33" y="492.36" width="16.4" height="16.4"/><rect class="cls-10" x="102.33" y="547.02" width="16.4" height="16.4"/><rect class="cls-10" x="102.33" y="510.58" width="16.4" height="16.4"/><rect class="cls-10" x="102.33" y="310.17" width="16.4" height="16.4"/><rect class="cls-10" x="102.33" y="291.95" width="16.4" height="16.4"/><rect class="cls-10" x="102.33" y="328.39" width="16.4" height="16.4"/><rect class="cls-10" x="175.21" y="255.5" width="16.4" height="16.4"/><rect class="cls-10" x="175.21" y="237.28" width="16.4" height="16.4"/><rect class="cls-10" x="175.21" y="437.7" width="16.4" height="16.4"/><rect class="cls-10" x="175.21" y="273.73" width="16.4" height="16.4"/><rect class="cls-10" x="120.55" y="73.3" width="16.4" height="16.4"/><rect class="cls-10" x="120.55" y="164.41" width="16.4" height="16.4"/><rect class="cls-10" x="120.55" y="146.18" width="16.4" height="16.4"/><rect class="cls-10" x="120.55" y="55.08" width="16.4" height="16.4"/><rect class="cls-10" x="120.55" y="127.97" width="16.4" height="16.4"/><rect class="cls-10" x="120.55" y="109.74" width="16.4" height="16.4"/><rect class="cls-10" x="120.55" y="91.52" width="16.4" height="16.4"/><rect class="cls-10" x="120.55" y="200.84" width="16.4" height="16.4"/><rect class="cls-10" x="120.55" y="182.62" width="16.4" height="16.4"/><rect class="cls-10" x="120.55" y="219.06" width="16.4" height="16.4"/><text class="cls-11" transform="translate(380.77 376.98)">2</text><text class="cls-11" transform="translate(380.77 358.75)">2</text><text class="cls-11" transform="translate(380.77 85.46)">3</text><text class="cls-11" transform="translate(380.77 67.23)">3</text><text class="cls-11" transform="translate(380.77 759.61)">3</text><text class="cls-11" transform="translate(380.77 777.82)">3</text><text class="cls-11" transform="translate(380.77 741.39)">3</text><text class="cls-11" transform="translate(471.88 267.65)">3</text><text class="cls-11" transform="translate(471.88 249.44)">3</text><text class="cls-11" transform="translate(471.88 577.4)">3</text><text class="cls-11" transform="translate(490.1 686.73)">3</text><text class="cls-11" transform="translate(490.1 613.83)">3</text><text class="cls-11" transform="translate(435.43 540.95)">2</text><text class="cls-11" transform="translate(435.43 158.34)">3</text><text class="cls-11" transform="translate(435.43 67.23)">3</text><text class="cls-11" transform="translate(435.43 140.11)">3</text><text class="cls-11" transform="translate(435.43 121.9)">3</text><text class="cls-11" transform="translate(435.43 777.82)">3</text><text class="cls-11" transform="translate(435.43 723.16)">3</text><text class="cls-11" transform="translate(435.43 704.94)">3</text><text class="cls-11" transform="translate(435.43 686.73)">3</text><text class="cls-11" transform="translate(417.21 431.64)">3</text><text class="cls-11" transform="translate(417.21 449.86)">3</text><text class="cls-11" transform="translate(417.21 413.41)">2</text><text class="cls-11" transform="translate(344.33 540.95)">2</text><text class="cls-11" transform="translate(344.33 486.29)">2</text><text class="cls-11" transform="translate(344.33 176.56)">3</text><text class="cls-11" transform="translate(344.33 468.07)">2</text><text class="cls-11" transform="translate(344.33 504.52)">2</text><text class="cls-11" transform="translate(344.33 759.61)">2</text><text class="cls-11" transform="translate(344.33 431.64)">2</text><text class="cls-11" transform="translate(344.33 267.65)">4</text><text class="cls-11" transform="translate(344.33 249.44)">4</text><text class="cls-11" transform="translate(344.33 449.86)">2</text><text class="cls-11" transform="translate(344.33 777.82)">2</text><text class="cls-11" transform="translate(344.33 413.41)">2</text><text class="cls-11" transform="translate(344.33 650.28)">2</text><text class="cls-11" transform="translate(344.33 559.18)">2</text><text class="cls-11" transform="translate(344.33 285.88)">2</text><text class="cls-11" transform="translate(344.33 595.61)">2</text><text class="cls-11" transform="translate(344.33 522.73)">2</text><text class="cls-11" transform="translate(344.33 741.39)">2</text><text class="cls-11" transform="translate(344.33 632.07)">2</text><text class="cls-11" transform="translate(344.33 723.16)">2</text><text class="cls-11" transform="translate(344.33 704.94)">2</text><text class="cls-11" transform="translate(344.33 686.73)">2</text><text class="cls-11" transform="translate(344.33 668.51)">2</text><text class="cls-11" transform="translate(344.33 577.4)">2</text><text class="cls-11" transform="translate(344.33 613.83)">2</text><text class="cls-11" transform="translate(344.33 322.32)">3</text><text class="cls-11" transform="translate(344.33 304.09)">3</text><text class="cls-11" transform="translate(326.11 395.19)">1</text><text class="cls-11" transform="translate(326.11 340.53)">3</text><text class="cls-11" transform="translate(307.89 358.75)">1</text><text class="cls-11" transform="translate(307.89 759.61)">3</text><text class="cls-11" transform="translate(307.89 777.82)">3</text><text class="cls-11" transform="translate(307.89 194.77)">3</text><text class="cls-11" transform="translate(307.89 231.21)">2</text><text class="cls-11" transform="translate(398.99 212.99)">2</text><text class="cls-11" transform="translate(398.99 194.77)">2</text><text class="cls-11" transform="translate(362.55 85.46)">2</text><text class="cls-11" transform="translate(362.55 176.56)">2</text><text class="cls-11" transform="translate(362.55 158.34)">2</text><text class="cls-11" transform="translate(362.55 67.23)">2</text><text class="cls-11" transform="translate(362.55 140.11)">2</text><text class="cls-11" transform="translate(362.55 121.9)">2</text><text class="cls-11" transform="translate(362.55 103.67)">2</text><text class="cls-11" transform="translate(362.55 267.65)">2</text><text class="cls-11" transform="translate(362.55 249.44)">2</text><text class="cls-11" transform="translate(362.55 650.28)">3</text><text class="cls-11" transform="translate(362.55 322.32)">2</text><text class="cls-11" transform="translate(362.55 304.09)">2</text><text class="cls-11" transform="translate(362.55 340.53)">2</text><text class="cls-11" transform="translate(453.66 176.56)">3</text><text class="cls-11" transform="translate(453.66 759.61)">3</text><text class="cls-11" transform="translate(453.66 777.82)">3</text><text class="cls-11" transform="translate(453.66 650.28)">4</text><text class="cls-11" transform="translate(453.66 741.39)">3</text><text class="cls-11" transform="translate(271.45 358.75)">1</text><text class="cls-11" transform="translate(271.45 85.46)">1</text><text class="cls-11" transform="translate(271.45 176.56)">1</text><text class="cls-11" transform="translate(271.45 158.34)">1</text><text class="cls-11" transform="translate(271.45 67.23)">1</text><text class="cls-11" transform="translate(271.45 140.11)">1</text><text class="cls-11" transform="translate(271.45 121.9)">1</text><text class="cls-11" transform="translate(271.45 103.67)">1</text><text class="cls-11" transform="translate(271.45 267.65)">1</text><text class="cls-11" transform="translate(271.45 249.44)">1</text><text class="cls-11" transform="translate(271.45 212.99)">1</text><text class="cls-11" transform="translate(271.45 194.77)">1</text><text class="cls-11" transform="translate(271.45 559.18)">3</text><text class="cls-11" transform="translate(271.45 231.21)">1</text><text class="cls-11" transform="translate(271.45 285.88)">1</text><text class="cls-11" transform="translate(271.45 322.32)">1</text><text class="cls-11" transform="translate(271.45 304.09)">1</text><text class="cls-11" transform="translate(271.45 340.53)">1</text><text class="cls-11" transform="translate(508.32 158.34)">3</text><text class="cls-11" transform="translate(289.67 376.98)">1</text><text class="cls-11" transform="translate(289.67 358.75)">1</text><text class="cls-11" transform="translate(253.23 540.95)">1</text><text class="cls-11" transform="translate(253.23 486.29)">1</text><text class="cls-11" transform="translate(253.23 468.07)">1</text><text class="cls-11" transform="translate(253.23 504.52)">1</text><text class="cls-11" transform="translate(253.23 759.61)">1</text><text class="cls-11" transform="translate(253.23 431.64)">1</text><text class="cls-11" transform="translate(253.23 449.86)">1</text><text class="cls-11" transform="translate(253.23 777.82)">1</text><text class="cls-11" transform="translate(253.23 413.41)">1</text><text class="cls-11" transform="translate(253.23 650.28)">1</text><text class="cls-11" transform="translate(253.23 559.18)">1</text><text class="cls-11" transform="translate(253.23 595.61)">1</text><text class="cls-11" transform="translate(253.23 522.73)">1</text><text class="cls-11" transform="translate(253.23 741.39)">1</text><text class="cls-11" transform="translate(253.23 632.07)">1</text><text class="cls-11" transform="translate(253.23 723.16)">1</text><text class="cls-11" transform="translate(253.23 704.94)">1</text><text class="cls-11" transform="translate(253.23 686.73)">1</text><text class="cls-11" transform="translate(253.23 668.51)">1</text><text class="cls-11" transform="translate(253.23 577.4)">1</text><text class="cls-11" transform="translate(253.23 613.83)">1</text><text class="cls-11" transform="translate(143.91 431.64)">0</text><text class="cls-11" transform="translate(143.91 777.82)">0</text><text class="cls-11" transform="translate(143.91 413.41)">0</text><text class="cls-11" transform="translate(143.91 741.39)">0</text><text class="cls-11" transform="translate(143.91 723.16)">0</text><text class="cls-11" transform="translate(143.91 704.94)">0</text><text class="cls-11" transform="translate(235.01 395.19)">0</text><text class="cls-11" transform="translate(198.57 595.61)">0</text><text class="cls-11" transform="translate(198.57 577.4)">0</text><text class="cls-11" transform="translate(198.57 613.83)">0</text><text class="cls-11" transform="translate(216.79 686.73)">0</text><text class="cls-11" transform="translate(216.79 668.51)">0</text><text class="cls-11" transform="translate(162.13 759.61)">0</text><text class="cls-11" transform="translate(162.13 650.28)">0</text><text class="cls-11" transform="translate(162.13 741.39)">0</text><text class="cls-11" transform="translate(162.13 632.07)">0</text><text class="cls-11" transform="translate(107.47 376.98)">0</text><text class="cls-11" transform="translate(107.47 358.75)">0</text><text class="cls-11" transform="translate(107.47 540.95)">0</text><text class="cls-11" transform="translate(107.47 486.29)">0</text><text class="cls-11" transform="translate(107.47 468.07)">0</text><text class="cls-11" transform="translate(107.47 504.52)">0</text><text class="cls-11" transform="translate(107.47 559.18)">0</text><text class="cls-11" transform="translate(107.47 522.73)">0</text><text class="cls-11" transform="translate(107.47 322.32)">0</text><text class="cls-11" transform="translate(107.47 304.09)">0</text><text class="cls-11" transform="translate(107.47 340.53)">0</text><text class="cls-11" transform="translate(180.35 267.65)">0</text><text class="cls-11" transform="translate(180.35 249.44)">0</text><text class="cls-11" transform="translate(180.35 449.86)">0</text><text class="cls-11" transform="translate(180.35 285.88)">0</text><text class="cls-11" transform="translate(125.69 85.46)">0</text><text class="cls-11" transform="translate(125.69 176.56)">0</text><text class="cls-11" transform="translate(125.69 158.34)">0</text><text class="cls-11" transform="translate(125.69 67.23)">0</text><text class="cls-11" transform="translate(125.69 140.11)">0</text><text class="cls-11" transform="translate(125.69 121.9)">0</text><text class="cls-11" transform="translate(125.69 103.67)">0</text><text class="cls-11" transform="translate(125.69 212.99)">0</text><text class="cls-11" transform="translate(125.69 194.77)">0</text><text class="cls-11" transform="translate(125.69 231.21)">0</text></g><text class="cls-12" transform="translate(256.34 45.17) rotate(-45)">Mouth</text><text class="cls-12" transform="translate(274.56 45.17) rotate(-45)">Skin</text><text class="cls-12" transform="translate(292.78 45.17) rotate(-45)">Nose</text><text class="cls-12" transform="translate(311 45.17) rotate(-45)">E<tspan class="cls-13" x="4.67" y="0">y</tspan><tspan x="8.04" y="0">e</tspan></text><text class="cls-12" transform="translate(329.22 45.17) rotate(-45)">GU</text><text class="cls-12" transform="translate(347.44 45.17) rotate(-45)">Intestine</text><text class="cls-12" transform="translate(365.66 45.17) rotate(-45)">Blood</text><text class="cls-12" transform="translate(383.88 45.17) rotate(-45)">B<tspan class="cls-14" x="4.67" y="0">r</tspan><tspan class="cls-15" x="6.93" y="0">ain</tspan></text><text class="cls-12" transform="translate(402.1 45.17) rotate(-45)"><tspan class="cls-16">L</tspan><tspan x="3.68" y="0">ymph</tspan></text><text class="cls-12" transform="translate(420.32 45.17) rotate(-45)">A<tspan class="cls-17" x="4.67" y="0">n</tspan><tspan x="8.49" y="0">us</tspan></text><text class="cls-12" transform="translate(438.54 45.17) rotate(-45)">Li<tspan class="cls-18" x="5.45" y="0">v</tspan><tspan x="8.78" y="0">er</tspan></text><text class="cls-12" transform="translate(456.76 45.17) rotate(-45)">Muscle</text><text class="cls-12" transform="translate(474.98 45.17) rotate(-45)">Lungs</text><text class="cls-12" transform="translate(493.2 45.17) rotate(-45)">Bile duct</text><text class="cls-12" transform="translate(511.42 45.17) rotate(-45)">Spleen</text><text class="cls-19" transform="translate(83.25 776.39)"><tspan class="cls-20">T</tspan><tspan class="cls-21" x="3.93" y="0">o</tspan><tspan x="8.14" y="0">xoca</tspan><tspan class="cls-22" x="25.04" y="0">r</tspan><tspan x="27.63" y="0">a canis</tspan></text><text class="cls-19" transform="translate(85.25 758.16)"><tspan class="cls-20">T</tspan><tspan class="cls-21" x="3.93" y="0">o</tspan><tspan x="8.14" y="0">xoplasma gondii</tspan></text><text class="cls-19" transform="translate(85.25 739.94)"><tspan class="cls-20">T</tspan><tspan x="3.93" y="0">aenia solium</tspan></text><text class="cls-19" transform="translate(44.89 721.73)">Echinococcus g<tspan class="cls-22" x="56.03" y="0">r</tspan><tspan x="58.62" y="0">a</tspan><tspan class="cls-22" x="63.06" y="0">n</tspan><tspan x="67.43" y="0">ulosus</tspan></text><text class="cls-19" transform="translate(38.5 703.51)">Echinococcus <tspan class="cls-22" x="51.58" y="0">m</tspan><tspan x="58.17" y="0">ultilocula</tspan><tspan class="cls-23" x="89.29" y="0">r</tspan><tspan x="92.07" y="0">is</tspan></text><text class="cls-19" transform="translate(146.97 685.28)"><tspan class="cls-24">F</tspan><tspan x="4.49" y="0">asciola hepatica</tspan></text><text class="cls-19" transform="translate(144.78 667.07)"><tspan class="cls-24">F</tspan><tspan x="4.49" y="0">asciolopsis </tspan><tspan class="cls-25" x="45.85" y="0">b</tspan><tspan x="50.14" y="0">uski</tspan></text><text class="cls-19" transform="translate(92.61 648.85)"><tspan class="cls-20">T</tspan><tspan class="cls-23" x="3.93" y="0">r</tspan><tspan x="6.71" y="0">ichinella spi</tspan><tspan class="cls-22" x="48.07" y="0">r</tspan><tspan x="50.65" y="0">alis</tspan></text><text class="cls-19" transform="translate(98.46 630.62)"><tspan class="cls-20">T</tspan><tspan x="3.93" y="0">aenia saginata</tspan></text><text class="cls-19" transform="translate(119.13 612.4)">Clonorchis sinensis</text><text class="cls-19" transform="translate(108.35 594.19)">Dip<tspan class="cls-26" x="12" y="0">h</tspan><tspan x="16.21" y="0">ylloboth</tspan><tspan class="cls-23" x="43.79" y="0">r</tspan><tspan x="46.56" y="0">ium latum</tspan></text><text class="cls-19" transform="translate(96.81 575.97)"><tspan class="cls-27">P</tspan><tspan x="5.02" y="0">a</tspan><tspan class="cls-22" x="9.47" y="0">r</tspan><tspan x="12.06" y="0">agonomius </tspan><tspan class="cls-22" x="53.42" y="0">w</tspan><tspan x="59.11" y="0">este</tspan><tspan class="cls-28" x="74.23" y="0">r</tspan><tspan x="77.09" y="0">mani</tspan></text><text class="cls-19" transform="translate(8.25 557.74)">D<tspan class="cls-22" x="5.78" y="0">r</tspan><tspan x="8.36" y="0">acunculus medinensis</tspan></text><text class="cls-19" transform="translate(15.95 539.52)">Entamoeba histolytica</text><text class="cls-19" transform="translate(25.29 521.31)">Hymenilepsis nana</text><text class="cls-19" transform="translate(25.76 503.08)">Cystoisospo<tspan class="cls-22" x="43.57" y="0">r</tspan><tspan x="46.16" y="0">a belli</tspan></text><text class="cls-19" transform="translate(37.89 484.86)">Giardia lam<tspan class="cls-29" x="40.9" y="0">b</tspan><tspan x="45.19" y="0">lia</tspan></text><text class="cls-19" transform="translate(7.66 466.65)">C<tspan class="cls-30" x="5.78" y="0">r</tspan><tspan x="8.67" y="0">yptospo</tspan><tspan class="cls-23" x="36.69" y="0">r</tspan><tspan x="39.47" y="0">idium pa</tspan><tspan class="cls-30" x="69.71" y="0">r</tspan><tspan x="72.6" y="0">vum</tspan></text><text class="cls-19" transform="translate(96.87 448.43)">Asca<tspan class="cls-31" x="17.79" y="0">r</tspan><tspan x="20.56" y="0">is lumb</tspan><tspan class="cls-23" x="45.9" y="0">r</tspan><tspan x="48.68" y="0">icoides</tspan></text><text class="cls-19" transform="translate(54.58 430.2)">Enterobius <tspan class="cls-32" x="40.47" y="0">v</tspan><tspan x="44.27" y="0">e</tspan><tspan class="cls-28" x="48.72" y="0">r</tspan><tspan x="51.57" y="0">micula</tspan><tspan class="cls-31" x="74.69" y="0">r</tspan><tspan x="77.47" y="0">is</tspan></text><text class="cls-19" transform="translate(74.35 411.98)"><tspan class="cls-20">T</tspan><tspan class="cls-23" x="3.93" y="0">r</tspan><tspan x="6.71" y="0">ichu</tspan><tspan class="cls-31" x="21.39" y="0">r</tspan><tspan x="24.16" y="0">is t</tspan><tspan class="cls-31" x="34.39" y="0">r</tspan><tspan x="37.16" y="0">ichiu</tspan><tspan class="cls-33" x="53.61" y="0">r</tspan><tspan x="56.2" y="0">a</tspan></text><text class="cls-19" transform="translate(146.97 393.77)"><tspan class="cls-20">T</tspan><tspan class="cls-23" x="3.93" y="0">r</tspan><tspan x="6.71" y="0">ichomonas </tspan><tspan class="cls-32" x="47.62" y="0">v</tspan><tspan x="51.42" y="0">aginalis</tspan></text><text class="cls-19" transform="translate(32.41 375.55)">Naegle<tspan class="cls-31" x="25.35" y="0">r</tspan><tspan x="28.13" y="0">ia </tspan><tspan class="cls-34" x="36.58" y="0">f</tspan><tspan class="cls-35" x="38.57" y="0">o</tspan><tspan x="42.9" y="0">wle</tspan><tspan class="cls-23" x="54.9" y="0">r</tspan><tspan x="57.68" y="0">i</tspan></text><text class="cls-19" transform="translate(22.41 357.32)">Acanthamoeba sp<tspan class="cls-36" x="64.49" y="0">p</tspan><tspan x="68.66" y="0">.</tspan></text><text class="cls-19" transform="translate(0 339.11)">Schistosoma haematobium</text><text class="cls-19" transform="translate(15.96 320.88)">Schistosoma mansoni</text><text class="cls-19" transform="translate(10.51 302.67)">Schistosoma japonicum</text><text class="cls-19" transform="translate(85.25 284.44)">Strongyloides sterco<tspan class="cls-22" x="72.48" y="0">r</tspan><tspan x="75.06" y="0">alis</tspan></text><text class="cls-19" transform="translate(94.87 266.21)">Necantor ame<tspan class="cls-31" x="50.25" y="0">r</tspan><tspan x="53.02" y="0">ica</tspan><tspan class="cls-33" x="63.25" y="0">n</tspan><tspan x="67.62" y="0">us</tspan></text><text class="cls-19" transform="translate(83.22 247.99)">Ancyclostoma duodenale</text><text class="cls-37" transform="translate(82.13 229.77)">Loa Loa</text><text class="cls-19" transform="translate(49.18 211.56)"><tspan class="cls-34">W</tspan><tspan x="7.32" y="0">uche</tspan><tspan class="cls-31" x="24.67" y="0">r</tspan><tspan x="27.44" y="0">ia bancrofti</tspan></text><text class="cls-19" transform="translate(42.63 193.34)">Onchocerca <tspan class="cls-38" x="45.36" y="0">v</tspan><tspan x="49.16" y="0">olvulus</tspan></text><text class="cls-19" transform="translate(48.43 175.11)"><tspan class="cls-20">T</tspan><tspan class="cls-30" x="3.93" y="0">r</tspan><tspan x="6.83" y="0">ypanosoma c</tspan><tspan class="cls-23" x="54.41" y="0">r</tspan><tspan x="57.19" y="0">uzi</tspan></text><text class="cls-19" transform="translate(56.7 156.9)">Leishmania sp<tspan class="cls-36" x="51.59" y="0">p</tspan><tspan x="55.76" y="0">.</tspan></text><text class="cls-19" transform="translate(51.2 138.67)">Plasmodium vi<tspan class="cls-32" x="52.02" y="0">v</tspan><tspan x="55.82" y="0">ax</tspan></text><text class="cls-19" transform="translate(50.52 120.46)">Plasmodium <tspan class="cls-35" x="46.24" y="0">o</tspan><tspan class="cls-38" x="50.57" y="0">v</tspan><tspan x="54.38" y="0">ale</tspan></text><text class="cls-19" transform="translate(59.58 102.23)">Babesia microti</text><text class="cls-19" transform="translate(44.15 84.02)"><tspan class="cls-20">T</tspan><tspan class="cls-30" x="3.93" y="0">r</tspan><tspan x="6.83" y="0">ypanosoma b</tspan><tspan class="cls-23" x="54.86" y="0">r</tspan><tspan x="57.64" y="0">ucei</tspan></text><text class="cls-19" transform="translate(34.79 65.8)">Plasmodium <tspan class="cls-34" x="46.24" y="0">f</tspan><tspan x="48.23" y="0">alcipa</tspan><tspan class="cls-31" x="69.13" y="0">r</tspan><tspan x="71.91" y="0">um</tspan></text><text x="-32.33" y="0.77"></text><path class="cls-39" d="M179.36,393" transform="translate(-32.33 0.77)"/><path class="cls-39" d="M179.36,56.66" transform="translate(-32.33 0.77)"/><line class="cls-40" x1="246.3" y1="44.75" x2="247.1" y2="787.77"/><rect class="cls-10" x="100.92" y="6.61" width="144.78" height="41.84"/><line class="cls-40" x1="276.47" y1="14.57" x2="246.3" y2="44.75"/><text class="cls-12" transform="translate(110.58 45.17) rotate(-45)">Water</text><text class="cls-12" transform="translate(128.8 45.17) rotate(-45)">Insect</text><text class="cls-12" transform="translate(147.02 45.17) rotate(-45)">Feces</text><text class="cls-12" transform="translate(165.24 45.17) rotate(-45)">Meat</text><text class="cls-12" transform="translate(183.46 45.17) rotate(-45)">Soil</text><text class="cls-12" transform="translate(201.68 45.17) rotate(-45)">Seafood</text><text class="cls-41" transform="translate(128.75 19.23)">Infection source</text><rect class="cls-10" x="273.58" y="7.55" width="18" height="38.05" transform="translate(69.23 -191.26) rotate(45)"/><text class="cls-12" transform="translate(219.9 45.17) rotate(-45)">Watercress</text><text class="cls-12" transform="translate(238.12 45.17) rotate(-45)">Sex</text><rect class="cls-10" x="278.03" y="5.84" width="18" height="18" transform="translate(269.54 -271.42) rotate(90)"/><rect class="cls-10" x="298" y="5.84" width="10.59" height="7.78" transform="translate(574.26 20.22) rotate(180)"/><polygon class="cls-10" points="267.96 19.68 263.42 7.85 275.93 9.83 267.96 19.68"/><polygon class="cls-10" points="262.67 6.61 274.51 6.63 262.69 18.45 262.67 6.61"/><polygon class="cls-10" points="264.41 14.15 276.25 14.17 264.43 25.99 264.41 14.15"/><text class="cls-41" transform="translate(365.66 19.23)">Organs a<tspan class="cls-42" x="53.47" y="0">f</tspan><tspan x="56.86" y="0">fected</tspan></text></svg>